<svg width="88" height="88" viewBox="0 0 88 88" fill="none" xmlns="http://www.w3.org/2000/svg">
<path d="M85.8048 27.5767C87.0153 27.5767 88 26.592 88 25.3815V20.987C88 19.7765 87.0153 18.7918 85.8048 18.7918H83.6493V17.3231C83.6493 15.0918 81.834 13.2765 79.6027 13.2765H79.0647V1.28906C79.0647 0.576984 78.4876 0 77.7757 0C77.0638 0 76.4866 0.576984 76.4866 1.28906V13.2763H72.8724V6.01494C72.8724 5.30286 72.2953 4.72587 71.5834 4.72587C70.8715 4.72587 70.2943 5.30286 70.2943 6.01494V13.2763H59.8807C57.6495 13.2763 55.8341 15.0917 55.8341 17.3229V18.7916H53.6786C52.4681 18.7916 51.4834 19.7763 51.4834 20.9868V25.3813C51.4834 26.5918 52.4681 27.5765 53.6786 27.5765H54.8056L57.448 36.6766H53.6788C52.4683 36.6766 51.4836 37.6592 51.4836 38.867V43.2615C51.4836 44.472 52.4683 45.4566 53.6788 45.4566H59.615V55.0052H52.9066V52.6938C52.9066 49.9977 50.7131 47.8045 48.0171 47.8045H14.1707C11.4747 47.8048 9.28125 49.9981 9.28125 52.6941V55.0055H2.11733C0.949781 55.0055 0 55.9575 0 57.1278V65.4737V77.532V85.8779C0 87.048 0.949781 88 2.11733 88H60.9036H77.6684C78.8817 88 79.8686 87.0131 79.8686 85.7998V63.4128C79.8686 62.7007 79.2914 62.1237 78.5795 62.1237C77.8676 62.1237 77.2905 62.7007 77.2905 63.4128V85.4219H62.1928V77.532V65.4737V56.2947V45.4572H77.2905V57.464C77.2905 58.1761 77.8676 58.7531 78.5795 58.7531C79.2914 58.7531 79.8686 58.1761 79.8686 57.464V45.4572H85.8048C87.0153 45.4572 88 44.4725 88 43.262V38.8675C88 37.6597 87.0153 36.6771 85.8048 36.6771H82.0356L84.678 27.577H85.8048V27.5767ZM58.4121 17.3229C58.4121 16.5132 59.0709 15.8544 59.8806 15.8544H79.6027C80.4124 15.8544 81.0712 16.5132 81.0712 17.3229V18.7916H58.4121V17.3229ZM45.16 76.2429V66.7628H51.0981V76.2429H45.16ZM53.6762 66.7628H59.6145V76.2429H53.6762V66.7628ZM2.57812 57.5836H28.2073C28.9192 57.5836 29.4963 57.0066 29.4963 56.2946C29.4963 55.5825 28.9192 55.0055 28.2073 55.0055H11.8594V52.6941C11.8594 51.4197 12.8963 50.3829 14.1707 50.3829H48.0169C49.2915 50.3829 50.3283 51.4197 50.3283 52.6941V55.0055H34.1607C33.4488 55.0055 32.8716 55.5825 32.8716 56.2946C32.8716 57.0066 33.4488 57.5836 34.1607 57.5836H59.6143V64.1845H2.57812V57.5836ZM42.5819 66.7628V76.2429H36.6436V66.7628H42.5819ZM34.0655 66.7628V76.2429H28.1272V66.7628H34.0655ZM25.549 66.7628V76.2429H19.6109V66.7628H25.549ZM17.0328 66.7628V76.2429H11.0945V66.7628H17.0328ZM2.57812 66.7628H8.51641V76.2429H2.57812V66.7628ZM59.6145 85.4219H2.57812V78.821H59.6145V85.4219ZM85.4219 39.255V42.879H54.0612V39.255H85.4219ZM57.49 27.5767H63.9702V36.6768H60.1322L57.49 27.5767ZM66.5483 36.6769V27.5768H72.9348V36.6769H66.5483ZM75.5129 36.6769V27.5768H81.9933L79.3509 36.6769H75.5129ZM54.0612 24.9985V21.3697H85.4219V24.9985H54.0612Z" fill="#5E5E5E"/>
</svg>
