<svg width="84" height="78" viewBox="0 0 84 78" fill="none" xmlns="http://www.w3.org/2000/svg">
<path d="M76.375 9H69.5V6.25C69.5 4.79131 68.9205 3.39236 67.8891 2.36091C66.8576 1.32946 65.4587 0.75 64 0.75C62.5413 0.75 61.1424 1.32946 60.1109 2.36091C59.0795 3.39236 58.5 4.79131 58.5 6.25V9H47.5V6.25C47.5 4.79131 46.9205 3.39236 45.8891 2.36091C44.8576 1.32946 43.4587 0.75 42 0.75C40.5413 0.75 39.1424 1.32946 38.1109 2.36091C37.0795 3.39236 36.5 4.79131 36.5 6.25V9H25.5V6.25C25.5 4.79131 24.9205 3.39236 23.8891 2.36091C22.8576 1.32946 21.4587 0.75 20 0.75C18.5413 0.75 17.1424 1.32946 16.1109 2.36091C15.0795 3.39236 14.5 4.79131 14.5 6.25V9H7.625C5.80164 9 4.05295 9.72433 2.76364 11.0136C1.47433 12.303 0.75 14.0516 0.75 15.875V70.875C0.75 72.6984 1.47433 74.447 2.76364 75.7364C4.05295 77.0257 5.80164 77.75 7.625 77.75H46.125C46.4897 77.75 46.8394 77.6051 47.0973 77.3473C47.3551 77.0894 47.5 76.7397 47.5 76.375C47.5 76.0103 47.3551 75.6606 47.0973 75.4027C46.8394 75.1449 46.4897 75 46.125 75H7.625C6.53199 74.9967 5.48467 74.5611 4.71179 73.7882C3.93891 73.0153 3.50326 71.968 3.5 70.875V28.25H80.5V51.625C80.5 51.9897 80.6449 52.3394 80.9027 52.5973C81.1606 52.8551 81.5103 53 81.875 53C82.2397 53 82.5894 52.8551 82.8473 52.5973C83.1051 52.3394 83.25 51.9897 83.25 51.625V15.875C83.25 14.0516 82.5257 12.303 81.2364 11.0136C79.947 9.72433 78.1984 9 76.375 9ZM61.25 6.25C61.25 5.52065 61.5397 4.82118 62.0555 4.30546C62.5712 3.78973 63.2707 3.5 64 3.5C64.7293 3.5 65.4288 3.78973 65.9445 4.30546C66.4603 4.82118 66.75 5.52065 66.75 6.25V14.5C66.75 15.2293 66.4603 15.9288 65.9445 16.4445C65.4288 16.9603 64.7293 17.25 64 17.25C63.2707 17.25 62.5712 16.9603 62.0555 16.4445C61.5397 15.9288 61.25 15.2293 61.25 14.5V6.25ZM39.25 6.25C39.25 5.52065 39.5397 4.82118 40.0555 4.30546C40.5712 3.78973 41.2707 3.5 42 3.5C42.7293 3.5 43.4288 3.78973 43.9445 4.30546C44.4603 4.82118 44.75 5.52065 44.75 6.25V14.5C44.75 15.2293 44.4603 15.9288 43.9445 16.4445C43.4288 16.9603 42.7293 17.25 42 17.25C41.2707 17.25 40.5712 16.9603 40.0555 16.4445C39.5397 15.9288 39.25 15.2293 39.25 14.5V6.25ZM17.25 6.25C17.25 5.52065 17.5397 4.82118 18.0555 4.30546C18.5712 3.78973 19.2707 3.5 20 3.5C20.7293 3.5 21.4288 3.78973 21.9445 4.30546C22.4603 4.82118 22.75 5.52065 22.75 6.25V14.5C22.75 15.2293 22.4603 15.9288 21.9445 16.4445C21.4288 16.9603 20.7293 17.25 20 17.25C19.2707 17.25 18.5712 16.9603 18.0555 16.4445C17.5397 15.9288 17.25 15.2293 17.25 14.5V6.25ZM80.5 25.5H3.5V15.875C3.50326 14.782 3.93891 13.7347 4.71179 12.9618C5.48467 12.1889 6.53199 11.7533 7.625 11.75H14.5V14.5C14.5 15.9587 15.0795 17.3576 16.1109 18.3891C17.1424 19.4205 18.5413 20 20 20C21.4587 20 22.8576 19.4205 23.8891 18.3891C24.9205 17.3576 25.5 15.9587 25.5 14.5V11.75H36.5V14.5C36.5 15.9587 37.0795 17.3576 38.1109 18.3891C39.1424 19.4205 40.5413 20 42 20C43.4587 20 44.8576 19.4205 45.8891 18.3891C46.9205 17.3576 47.5 15.9587 47.5 14.5V11.75H58.5V14.5C58.5 15.9587 59.0795 17.3576 60.1109 18.3891C61.1424 19.4205 62.5413 20 64 20C65.4587 20 66.8576 19.4205 67.8891 18.3891C68.9205 17.3576 69.5 15.9587 69.5 14.5V11.75H76.375C77.468 11.7533 78.5153 12.1889 79.2882 12.9618C80.0611 13.7347 80.4967 14.782 80.5 15.875V25.5Z" fill="#5E5E5E"/>
</svg>
