<svg width="90" height="92" viewBox="0 0 90 92" fill="none" xmlns="http://www.w3.org/2000/svg">
<g filter="url(#filter0_d)">
<path d="M78.375 11H71.5V8.25C71.5 6.79131 70.9205 5.39236 69.8891 4.36091C68.8576 3.32946 67.4587 2.75 66 2.75C64.5413 2.75 63.1424 3.32946 62.1109 4.36091C61.0795 5.39236 60.5 6.79131 60.5 8.25V11H49.5V8.25C49.5 6.79131 48.9205 5.39236 47.8891 4.36091C46.8576 3.32946 45.4587 2.75 44 2.75C42.5413 2.75 41.1424 3.32946 40.1109 4.36091C39.0795 5.39236 38.5 6.79131 38.5 8.25V11H27.5V8.25C27.5 6.79131 26.9205 5.39236 25.8891 4.36091C24.8576 3.32946 23.4587 2.75 22 2.75C20.5413 2.75 19.1424 3.32946 18.1109 4.36091C17.0795 5.39236 16.5 6.79131 16.5 8.25V11H9.625C7.80164 11 6.05295 11.7243 4.76364 13.0136C3.47433 14.303 2.75 16.0516 2.75 17.875V72.875C2.75 74.6984 3.47433 76.447 4.76364 77.7364C6.05295 79.0257 7.80164 79.75 9.625 79.75H48.125C48.4897 79.75 48.8394 79.6051 49.0973 79.3473C49.3551 79.0894 49.5 78.7397 49.5 78.375C49.5 78.0103 49.3551 77.6606 49.0973 77.4027C48.8394 77.1449 48.4897 77 48.125 77H9.625C8.53199 76.9967 7.48467 76.5611 6.71179 75.7882C5.93891 75.0153 5.50326 73.968 5.5 72.875V30.25H82.5V53.625C82.5 53.9897 82.6449 54.3394 82.9027 54.5973C83.1606 54.8551 83.5103 55 83.875 55C84.2397 55 84.5894 54.8551 84.8473 54.5973C85.1051 54.3394 85.25 53.9897 85.25 53.625V17.875C85.25 16.0516 84.5257 14.303 83.2364 13.0136C81.947 11.7243 80.1984 11 78.375 11ZM63.25 8.25C63.25 7.52065 63.5397 6.82118 64.0555 6.30546C64.5712 5.78973 65.2707 5.5 66 5.5C66.7293 5.5 67.4288 5.78973 67.9445 6.30546C68.4603 6.82118 68.75 7.52065 68.75 8.25V16.5C68.75 17.2293 68.4603 17.9288 67.9445 18.4445C67.4288 18.9603 66.7293 19.25 66 19.25C65.2707 19.25 64.5712 18.9603 64.0555 18.4445C63.5397 17.9288 63.25 17.2293 63.25 16.5V8.25ZM41.25 8.25C41.25 7.52065 41.5397 6.82118 42.0555 6.30546C42.5712 5.78973 43.2707 5.5 44 5.5C44.7293 5.5 45.4288 5.78973 45.9445 6.30546C46.4603 6.82118 46.75 7.52065 46.75 8.25V16.5C46.75 17.2293 46.4603 17.9288 45.9445 18.4445C45.4288 18.9603 44.7293 19.25 44 19.25C43.2707 19.25 42.5712 18.9603 42.0555 18.4445C41.5397 17.9288 41.25 17.2293 41.25 16.5V8.25ZM19.25 8.25C19.25 7.52065 19.5397 6.82118 20.0555 6.30546C20.5712 5.78973 21.2707 5.5 22 5.5C22.7293 5.5 23.4288 5.78973 23.9445 6.30546C24.4603 6.82118 24.75 7.52065 24.75 8.25V16.5C24.75 17.2293 24.4603 17.9288 23.9445 18.4445C23.4288 18.9603 22.7293 19.25 22 19.25C21.2707 19.25 20.5712 18.9603 20.0555 18.4445C19.5397 17.9288 19.25 17.2293 19.25 16.5V8.25ZM82.5 27.5H5.5V17.875C5.50326 16.782 5.93891 15.7347 6.71179 14.9618C7.48467 14.1889 8.53199 13.7533 9.625 13.75H16.5V16.5C16.5 17.9587 17.0795 19.3576 18.1109 20.3891C19.1424 21.4205 20.5413 22 22 22C23.4587 22 24.8576 21.4205 25.8891 20.3891C26.9205 19.3576 27.5 17.9587 27.5 16.5V13.75H38.5V16.5C38.5 17.9587 39.0795 19.3576 40.1109 20.3891C41.1424 21.4205 42.5413 22 44 22C45.4587 22 46.8576 21.4205 47.8891 20.3891C48.9205 19.3576 49.5 17.9587 49.5 16.5V13.75H60.5V16.5C60.5 17.9587 61.0795 19.3576 62.1109 20.3891C63.1424 21.4205 64.5413 22 66 22C67.4587 22 68.8576 21.4205 69.8891 20.3891C70.9205 19.3576 71.5 17.9587 71.5 16.5V13.75H78.375C79.468 13.7533 80.5153 14.1889 81.2882 14.9618C82.0611 15.7347 82.4967 16.782 82.5 17.875V27.5Z" fill="#5E5E5E"/>
<path d="M41.25 39.875C41.25 39.1457 40.9603 38.4462 40.4445 37.9305C39.9288 37.4147 39.2293 37.125 38.5 37.125H33C32.2707 37.125 31.5712 37.4147 31.0555 37.9305C30.5397 38.4462 30.25 39.1457 30.25 39.875V44C30.25 44.7293 30.5397 45.4288 31.0555 45.9445C31.5712 46.4603 32.2707 46.75 33 46.75H38.5C39.2293 46.75 39.9288 46.4603 40.4445 45.9445C40.9603 45.4288 41.25 44.7293 41.25 44V39.875ZM33 44V39.875H38.5V44H33Z" fill="#5E5E5E"/>
<path d="M24.75 39.875C24.75 39.1457 24.4603 38.4462 23.9445 37.9305C23.4288 37.4147 22.7293 37.125 22 37.125H16.5C15.7707 37.125 15.0712 37.4147 14.5555 37.9305C14.0397 38.4462 13.75 39.1457 13.75 39.875V44C13.75 44.7293 14.0397 45.4288 14.5555 45.9445C15.0712 46.4603 15.7707 46.75 16.5 46.75H22C22.7293 46.75 23.4288 46.4603 23.9445 45.9445C24.4603 45.4288 24.75 44.7293 24.75 44V39.875ZM16.5 44V39.875H22V44H16.5Z" fill="#5E5E5E"/>
<path d="M71.5 46.75C72.2293 46.75 72.9288 46.4603 73.4445 45.9445C73.9603 45.4288 74.25 44.7293 74.25 44V39.875C74.25 39.1457 73.9603 38.4462 73.4445 37.9305C72.9288 37.4147 72.2293 37.125 71.5 37.125H66C65.2707 37.125 64.5712 37.4147 64.0555 37.9305C63.5397 38.4462 63.25 39.1457 63.25 39.875V44C63.25 44.7293 63.5397 45.4288 64.0555 45.9445C64.5712 46.4603 65.2707 46.75 66 46.75H71.5ZM66 39.875H71.5V44H66V39.875Z" fill="#5E5E5E"/>
<path d="M41.25 52.25C41.25 51.5207 40.9603 50.8212 40.4445 50.3055C39.9288 49.7897 39.2293 49.5 38.5 49.5H33C32.2707 49.5 31.5712 49.7897 31.0555 50.3055C30.5397 50.8212 30.25 51.5207 30.25 52.25V56.375C30.25 57.1043 30.5397 57.8038 31.0555 58.3195C31.5712 58.8353 32.2707 59.125 33 59.125H38.5C39.2293 59.125 39.9288 58.8353 40.4445 58.3195C40.9603 57.8038 41.25 57.1043 41.25 56.375V52.25ZM33 56.375V52.25H38.5V56.375H33Z" fill="#5E5E5E"/>
<path d="M24.75 52.25C24.75 51.5207 24.4603 50.8212 23.9445 50.3055C23.4288 49.7897 22.7293 49.5 22 49.5H16.5C15.7707 49.5 15.0712 49.7897 14.5555 50.3055C14.0397 50.8212 13.75 51.5207 13.75 52.25V56.375C13.75 57.1043 14.0397 57.8038 14.5555 58.3195C15.0712 58.8353 15.7707 59.125 16.5 59.125H22C22.7293 59.125 23.4288 58.8353 23.9445 58.3195C24.4603 57.8038 24.75 57.1043 24.75 56.375V52.25ZM16.5 56.375V52.25H22V56.375H16.5Z" fill="#5E5E5E"/>
<path d="M38.5 61.875H33C32.2707 61.875 31.5712 62.1647 31.0555 62.6805C30.5397 63.1962 30.25 63.8957 30.25 64.625V68.75C30.25 69.4793 30.5397 70.1788 31.0555 70.6945C31.5712 71.2103 32.2707 71.5 33 71.5H38.5C39.2293 71.5 39.9288 71.2103 40.4445 70.6945C40.9603 70.1788 41.25 69.4793 41.25 68.75V64.625C41.25 63.8957 40.9603 63.1962 40.4445 62.6805C39.9288 62.1647 39.2293 61.875 38.5 61.875ZM33 68.75V64.625H38.5V68.75H33Z" fill="#5E5E5E"/>
<path d="M49.5 46.75H55C55.7293 46.75 56.4288 46.4603 56.9445 45.9445C57.4603 45.4288 57.75 44.7293 57.75 44V39.875C57.75 39.1457 57.4603 38.4462 56.9445 37.9305C56.4288 37.4147 55.7293 37.125 55 37.125H49.5C48.7707 37.125 48.0712 37.4147 47.5555 37.9305C47.0397 38.4462 46.75 39.1457 46.75 39.875V44C46.75 44.7293 47.0397 45.4288 47.5555 45.9445C48.0712 46.4603 48.7707 46.75 49.5 46.75ZM49.5 39.875H55V44H49.5V39.875Z" fill="#5E5E5E"/>
<path d="M46.75 56.375C46.75 57.1043 47.0397 57.8038 47.5555 58.3195C48.0712 58.8353 48.7707 59.125 49.5 59.125C49.8647 59.125 50.2144 58.9801 50.4723 58.7223C50.7301 58.4644 50.875 58.1147 50.875 57.75C50.875 57.3853 50.7301 57.0356 50.4723 56.7777C50.2144 56.5199 49.8647 56.375 49.5 56.375V52.25H55C55.3647 52.25 55.7144 52.1051 55.9723 51.8473C56.2301 51.5894 56.375 51.2397 56.375 50.875C56.375 50.5103 56.2301 50.1606 55.9723 49.9027C55.7144 49.6449 55.3647 49.5 55 49.5H49.5C48.7707 49.5 48.0712 49.7897 47.5555 50.3055C47.0397 50.8212 46.75 51.5207 46.75 52.25V56.375Z" fill="#5E5E5E"/>
<path d="M22 61.875H16.5C15.7707 61.875 15.0712 62.1647 14.5555 62.6805C14.0397 63.1962 13.75 63.8957 13.75 64.625V68.75C13.75 69.4793 14.0397 70.1788 14.5555 70.6945C15.0712 71.2103 15.7707 71.5 16.5 71.5H22C22.7293 71.5 23.4288 71.2103 23.9445 70.6945C24.4603 70.1788 24.75 69.4793 24.75 68.75V64.625C24.75 63.8957 24.4603 63.1962 23.9445 62.6805C23.4288 62.1647 22.7293 61.875 22 61.875ZM16.5 68.75V64.625H22V68.75H16.5Z" fill="#5E5E5E"/>
<path d="M67.375 49.5C63.8397 49.5 60.3837 50.5484 57.4442 52.5125C54.5047 54.4766 52.2136 57.2683 50.8607 60.5345C49.5077 63.8008 49.1538 67.3948 49.8435 70.8622C50.5332 74.3296 52.2356 77.5147 54.7355 80.0145C57.2353 82.5144 60.4204 84.2168 63.8878 84.9065C67.3552 85.5962 70.9492 85.2422 74.2155 83.8893C77.4817 82.5364 80.2734 80.2453 82.2375 77.3058C84.2016 74.3663 85.25 70.9103 85.25 67.375C85.2445 62.6359 83.3595 58.0925 80.0085 54.7415C76.6575 51.3905 72.1141 49.5055 67.375 49.5ZM67.375 82.5C64.3836 82.5 61.4593 81.6129 58.972 79.951C56.4847 78.289 54.5461 75.9268 53.4013 73.1631C52.2566 70.3993 51.957 67.3582 52.5406 64.4243C53.1242 61.4903 54.5647 58.7953 56.68 56.68C58.7953 54.5647 61.4903 53.1242 64.4243 52.5406C67.3582 51.957 70.3994 52.2565 73.1631 53.4013C75.9268 54.5461 78.289 56.4847 79.951 58.972C81.6129 61.4593 82.5 64.3836 82.5 67.375C82.4953 71.3849 80.9002 75.2293 78.0648 78.0648C75.2293 80.9002 71.3849 82.4953 67.375 82.5Z" fill="#5E5E5E"/>
<path d="M75.3197 61.611L64.6249 72.3057L59.7643 67.4437C59.505 67.1932 59.1577 67.0546 58.7971 67.0578C58.4366 67.0609 58.0917 67.2055 57.8368 67.4605C57.5819 67.7154 57.4373 68.0603 57.4341 68.4208C57.431 68.7813 57.5696 69.1286 57.8201 69.388L63.6528 75.2221C63.9107 75.4799 64.2603 75.6247 64.6249 75.6247C64.9895 75.6247 65.3392 75.4799 65.5971 75.2221L77.2639 63.5552C77.5144 63.2959 77.653 62.9486 77.6499 62.588C77.6467 62.2275 77.5021 61.8826 77.2472 61.6277C76.9922 61.3728 76.6474 61.2282 76.2869 61.225C75.9263 61.2219 75.579 61.3605 75.3197 61.611Z" fill="#5E5E5E"/>
</g>
<defs>
<filter id="filter0_d" x="0" y="0" width="92" height="94" filterUnits="userSpaceOnUse" color-interpolation-filters="sRGB">
<feFlood flood-opacity="0" result="BackgroundImageFix"/>
<feColorMatrix in="SourceAlpha" type="matrix" values="0 0 0 0 0 0 0 0 0 0 0 0 0 0 0 0 0 0 127 0"/>
<feOffset dx="2" dy="4"/>
<feGaussianBlur stdDeviation="1"/>
<feColorMatrix type="matrix" values="0 0 0 0 0.843137 0 0 0 0 0.227451 0 0 0 0 0.27451 0 0 0 0.25 0"/>
<feBlend mode="normal" in2="BackgroundImageFix" result="effect1_dropShadow"/>
<feBlend mode="normal" in="SourceGraphic" in2="effect1_dropShadow" result="shape"/>
</filter>
</defs>
</svg>
