<svg width="67" height="88" viewBox="0 0 67 88" fill="none" xmlns="http://www.w3.org/2000/svg">
<path d="M46.2784 52.0506C48.0606 50.1936 49.5332 48.0671 50.6514 45.7508C53.5766 45.9904 56.6017 43.5145 57.8447 39.6407C59.2474 35.3028 57.8447 31.0796 54.57 30.0313C54.2605 29.9315 53.941 29.8716 53.6166 29.8416C53.6166 28.0895 53.4668 26.5669 53.327 25.1193C55.9328 23.2773 58.2291 21.0459 60.146 18.49C60.6302 17.7712 60.4455 16.7978 59.7266 16.3036C59.6368 16.2387 59.537 16.1888 59.4321 16.1438C55.783 14.6862 53.5966 8.636 53.1423 6.43457C52.9626 5.71573 52.3087 5.22154 51.5649 5.23651C40.8173 5.87048 34.7871 0.519158 34.7272 0.41932C34.1182 -0.139773 33.1847 -0.139773 32.5856 0.41932C32.5856 0.41932 26.3857 5.90044 15.5682 5.22653C14.8244 5.20157 14.1755 5.69577 13.9958 6.4146C13.4567 8.62102 11.2702 14.6662 7.70098 16.1338C6.87233 16.3984 6.41806 17.282 6.68263 18.1106C6.72257 18.2454 6.78247 18.3752 6.86234 18.49C8.75927 21.0559 11.0506 23.3072 13.6463 25.1642C13.5066 26.5819 13.4167 28.1094 13.3668 29.8915C13.0323 29.9215 12.7079 29.9864 12.3884 30.0912C9.15862 31.1495 7.67103 35.3627 9.12867 39.7106C10.3766 43.5644 13.3468 46.0004 16.322 45.8008C17.4402 48.112 18.9228 50.2386 20.6999 52.0955C9.19356 54.1223 2.18492 59.4137 0.332927 67.2859C0.322944 67.4007 0.322944 67.5155 0.332927 67.6304V83.6993C0.322944 84.4631 0.857077 85.127 1.61086 85.2768C1.70071 85.2768 6.92724 86.2652 14.465 87.0539H14.5C20.7698 87.7228 27.0796 88.0423 33.3893 87.9973H35.1814C40.9221 87.9724 46.6578 87.6529 52.3686 87.0389C59.9263 86.2502 65.1978 85.2568 65.2876 85.2468C66.0364 85.0971 66.5805 84.4331 66.5656 83.6694V67.6753C66.5805 67.5605 66.5805 67.4457 66.5656 67.3308C64.7884 59.4137 57.7648 54.1223 46.2784 52.0506ZM10.5464 18.0657C14.0407 15.5797 15.9127 10.7126 16.6565 8.41636C22.6418 8.67593 28.5472 6.97869 33.4792 3.58419C38.4162 6.99366 44.3316 8.6959 50.3219 8.41636C51.0507 10.7126 52.9227 15.5797 56.432 18.0657C55.0642 19.6132 53.5467 21.0109 51.8943 22.2539H15.114C13.4517 21.0109 11.9241 19.6132 10.5464 18.0657ZM46.7527 25.4038C42.5794 27.3557 37.9819 28.2242 33.3893 27.9397C28.8816 28.1643 24.3939 27.2758 20.3205 25.3539L46.7527 25.4038ZM18.6383 43.2848C18.2938 42.4861 17.3653 42.1167 16.5716 42.4612C16.5516 42.4662 16.5367 42.4711 16.5267 42.4811L16.342 42.571C15.0341 42.9204 13.0024 41.4428 12.1088 38.6873C11.2103 35.9318 12.1088 33.4608 13.3368 33.0315C13.6913 32.9266 14.0657 32.9266 14.4201 33.0315C15.2487 33.286 16.1273 32.8168 16.3869 31.9832C16.4268 31.8434 16.4468 31.6886 16.4518 31.5389C16.4518 29.8516 16.4518 28.394 16.6065 27.0362C21.6883 29.9864 27.5189 31.3941 33.3893 31.0796H34.9618C40.3331 31.0996 45.6095 29.6919 50.257 27.0062C50.3568 28.3441 50.3968 29.8117 50.4167 31.489C50.4217 32.3625 51.1356 33.0614 51.9992 33.0564C52.1539 33.0514 52.2987 33.0315 52.4484 32.9915C52.7979 32.8717 53.1773 32.8717 53.5367 32.9915C54.8446 33.4108 55.6732 35.8369 54.7647 38.6374C53.8462 41.4428 51.8444 42.9803 50.7013 42.6009L50.4667 42.4811C49.6729 42.1117 48.7395 42.4562 48.3701 43.2399C48.3651 43.2549 48.3601 43.2699 48.3551 43.2848C45.305 50.2985 39.6791 54.6963 33.4792 54.6963C27.2792 54.6963 21.6783 50.2985 18.6383 43.2848ZM63.4955 82.3765C61.7683 82.681 58.3639 83.2151 54.0508 83.6993V75.4826C54.0508 74.614 53.342 73.9152 52.4784 73.9152C51.6048 73.9152 50.9059 74.614 50.9059 75.4826V84.0488C45.0804 84.6228 39.2299 84.8874 33.3893 84.8325C27.6087 84.8824 21.8231 84.6128 16.0724 84.0288V75.4826C16.0724 74.614 15.3686 73.9152 14.5 73.9152C13.6314 73.9152 12.9225 74.614 12.9225 75.4826V83.7143C8.56458 83.2151 5.18506 82.681 3.48282 82.3964V67.865C5.60438 59.0842 15.4085 55.9243 23.2957 54.8161C23.4554 54.7912 23.6102 54.7363 23.75 54.6614C29.5655 58.8646 37.4178 58.8646 43.2234 54.6614C43.3682 54.7363 43.5229 54.7912 43.6827 54.8161C51.5499 55.9243 61.374 59.0842 63.4955 67.865V82.3765Z" fill="#5E5E5E"/>
</svg>
