<svg width="88" height="94" viewBox="0 0 88 94" fill="none" xmlns="http://www.w3.org/2000/svg">
<g clip-path="url(#clip0)" filter="url(#filter0_d)">
<path d="M57.2784 52.0506C59.0606 50.1936 60.5332 48.0671 61.6514 45.7508C64.5766 45.9904 67.6017 43.5145 68.8447 39.6407C70.2474 35.3028 68.8447 31.0796 65.57 30.0313C65.2605 29.9315 64.941 29.8716 64.6166 29.8416C64.6166 28.0895 64.4668 26.5669 64.327 25.1193C66.9328 23.2773 69.2291 21.0459 71.146 18.49C71.6302 17.7712 71.4455 16.7978 70.7266 16.3036C70.6368 16.2387 70.537 16.1888 70.4321 16.1438C66.783 14.6862 64.5966 8.636 64.1423 6.43457C63.9626 5.71573 63.3087 5.22154 62.5649 5.23651C51.8173 5.87048 45.7871 0.519158 45.7272 0.41932C45.1182 -0.139773 44.1847 -0.139773 43.5856 0.41932C43.5856 0.41932 37.3857 5.90044 26.5682 5.22653C25.8244 5.20157 25.1755 5.69577 24.9958 6.4146C24.4567 8.62102 22.2702 14.6662 18.701 16.1338C17.8723 16.3984 17.4181 17.282 17.6826 18.1106C17.7226 18.2454 17.7825 18.3752 17.8623 18.49C19.7593 21.0559 22.0506 23.3072 24.6463 25.1642C24.5066 26.5819 24.4167 28.1094 24.3668 29.8915C24.0323 29.9215 23.7079 29.9864 23.3884 30.0912C20.1586 31.1495 18.671 35.3627 20.1287 39.7106C21.3766 43.5644 24.3468 46.0004 27.322 45.8008C28.4402 48.112 29.9228 50.2386 31.6999 52.0955C20.1936 54.1223 13.1849 59.4137 11.3329 67.2859C11.3229 67.4007 11.3229 67.5155 11.3329 67.6304V83.6993C11.3229 84.4631 11.8571 85.127 12.6109 85.2768C12.7007 85.2768 17.9272 86.2652 25.465 87.0539H25.5C31.7698 87.7228 38.0796 88.0423 44.3893 87.9973H46.1814C51.9221 87.9724 57.6578 87.6529 63.3686 87.0389C70.9263 86.2502 76.1978 85.2568 76.2876 85.2468C77.0364 85.0971 77.5805 84.4331 77.5656 83.6694V67.6753C77.5805 67.5605 77.5805 67.4457 77.5656 67.3308C75.7884 59.4137 68.7648 54.1223 57.2784 52.0506ZM21.5464 18.0657C25.0407 15.5797 26.9127 10.7126 27.6565 8.41636C33.6418 8.67593 39.5472 6.97869 44.4792 3.58419C49.4162 6.99366 55.3316 8.6959 61.3219 8.41636C62.0507 10.7126 63.9227 15.5797 67.432 18.0657C66.0642 19.6132 64.5467 21.0109 62.8943 22.2539H26.114C24.4517 21.0109 22.9241 19.6132 21.5464 18.0657ZM57.7527 25.4038C53.5794 27.3557 48.9819 28.2242 44.3893 27.9397C39.8816 28.1643 35.3939 27.2758 31.3205 25.3539L57.7527 25.4038ZM29.6383 43.2848C29.2938 42.4861 28.3653 42.1167 27.5716 42.4612C27.5516 42.4662 27.5367 42.4711 27.5267 42.4811L27.342 42.571C26.0341 42.9204 24.0024 41.4428 23.1088 38.6873C22.2103 35.9318 23.1088 33.4608 24.3368 33.0315C24.6913 32.9266 25.0657 32.9266 25.4201 33.0315C26.2487 33.286 27.1273 32.8168 27.3869 31.9832C27.4268 31.8434 27.4468 31.6886 27.4518 31.5389C27.4518 29.8516 27.4518 28.394 27.6065 27.0362C32.6883 29.9864 38.5189 31.3941 44.3893 31.0796H45.9618C51.3331 31.0996 56.6095 29.6919 61.257 27.0062C61.3568 28.3441 61.3968 29.8117 61.4167 31.489C61.4217 32.3625 62.1356 33.0614 62.9992 33.0564C63.1539 33.0514 63.2987 33.0315 63.4484 32.9915C63.7979 32.8717 64.1773 32.8717 64.5367 32.9915C65.8446 33.4108 66.6732 35.8369 65.7647 38.6374C64.8462 41.4428 62.8444 42.9803 61.7013 42.6009L61.4667 42.4811C60.6729 42.1117 59.7395 42.4562 59.3701 43.2399C59.3651 43.2549 59.3601 43.2699 59.3551 43.2848C56.305 50.2985 50.6791 54.6963 44.4792 54.6963C38.2792 54.6963 32.6783 50.2985 29.6383 43.2848ZM74.4955 82.3765C72.7683 82.681 69.3639 83.2151 65.0508 83.6993V75.4826C65.0508 74.614 64.342 73.9152 63.4784 73.9152C62.6048 73.9152 61.9059 74.614 61.9059 75.4826V84.0488C56.0804 84.6228 50.2299 84.8874 44.3893 84.8325C38.6087 84.8824 32.8231 84.6128 27.0724 84.0288V75.4826C27.0724 74.614 26.3686 73.9152 25.5 73.9152C24.6314 73.9152 23.9225 74.614 23.9225 75.4826V83.7143C19.5646 83.2151 16.1851 82.681 14.4828 82.3964V67.865C16.6044 59.0842 26.4085 55.9243 34.2957 54.8161C34.4554 54.7912 34.6102 54.7363 34.75 54.6614C40.5655 58.8646 48.4178 58.8646 54.2234 54.6614C54.3682 54.7363 54.5229 54.7912 54.6827 54.8161C62.5499 55.9243 72.374 59.0842 74.4955 67.865V82.3765Z" fill="#5E5E5E"/>
</g>
<defs>
<filter id="filter0_d" x="0" y="0" width="92" height="94" filterUnits="userSpaceOnUse" color-interpolation-filters="sRGB">
<feFlood flood-opacity="0" result="BackgroundImageFix"/>
<feColorMatrix in="SourceAlpha" type="matrix" values="0 0 0 0 0 0 0 0 0 0 0 0 0 0 0 0 0 0 127 0"/>
<feOffset dx="2" dy="4"/>
<feGaussianBlur stdDeviation="1"/>
<feColorMatrix type="matrix" values="0 0 0 0 0.843137 0 0 0 0 0.227451 0 0 0 0 0.27451 0 0 0 0.25 0"/>
<feBlend mode="normal" in2="BackgroundImageFix" result="effect1_dropShadow"/>
<feBlend mode="normal" in="SourceGraphic" in2="effect1_dropShadow" result="shape"/>
</filter>
<clipPath id="clip0">
<rect width="88" height="88" fill="white"/>
</clipPath>
</defs>
</svg>
