<svg width="30" height="30" viewBox="0 0 30 30" fill="none" xmlns="http://www.w3.org/2000/svg">
<circle cx="15" cy="15" r="15" fill="#BA302C"/>
<path fill-rule="evenodd" clip-rule="evenodd" d="M13.502 17.4221C15.6182 17.4221 17.3338 15.7065 17.3338 13.5902C17.3338 11.474 15.6182 9.75842 13.502 9.75842C11.3857 9.75842 9.67015 11.474 9.67015 13.5902C9.67015 15.7065 11.3857 17.4221 13.502 17.4221ZM13.502 18.7857C16.3713 18.7857 18.6974 16.4596 18.6974 13.5902C18.6974 10.7209 16.3713 8.39478 13.502 8.39478C10.6326 8.39478 8.30652 10.7209 8.30652 13.5902C8.30652 16.4596 10.6326 18.7857 13.502 18.7857Z" fill="white"/>
<path fill-rule="evenodd" clip-rule="evenodd" d="M16.8814 16.576C17.1266 16.2902 17.5571 16.2574 17.8428 16.5027L22.0645 20.1264C22.3502 20.3717 22.383 20.8021 22.1378 21.0879C21.8925 21.3736 21.4621 21.4064 21.1763 21.1611L16.9546 17.5374C16.6689 17.2922 16.6361 16.8617 16.8814 16.576Z" fill="white"/>
</svg>
