<svg width="91" height="90" viewBox="0 0 91 90" fill="none" xmlns="http://www.w3.org/2000/svg">
<g filter="url(#filter0_d)">
<path d="M82.5 63.25V56.375C82.5 55.6457 82.2103 54.9462 81.6945 54.4305C81.1788 53.9147 80.4793 53.625 79.75 53.625H78.375V44C78.375 42.906 77.9404 41.8568 77.1668 41.0832C76.3932 40.3096 75.344 39.875 74.25 39.875H61.875C60.781 39.875 59.7318 40.3096 58.9582 41.0832C58.1846 41.8568 57.75 42.906 57.75 44V53.625H55V44C54.9346 42.847 54.4163 41.7665 53.5579 40.9939C52.6995 40.2213 51.5706 39.8191 50.4171 39.875H37.5829C36.4294 39.8191 35.3005 40.2213 34.4421 40.9939C33.5837 41.7665 33.0654 42.847 33 44V53.625H30.25V44C30.25 42.906 29.8154 41.8568 29.0418 41.0832C28.2682 40.3096 27.219 39.875 26.125 39.875H13.75C12.656 39.875 11.6068 40.3096 10.8332 41.0832C10.0596 41.8568 9.625 42.906 9.625 44V53.625H8.25C7.52065 53.625 6.82118 53.9147 6.30546 54.4305C5.78973 54.9462 5.5 55.6457 5.5 56.375V63.25C4.40598 63.25 3.35677 63.6846 2.58318 64.4582C1.8096 65.2318 1.375 66.281 1.375 67.375V71.5C1.375 71.8647 1.51987 72.2144 1.77773 72.4723C2.03559 72.7301 2.38533 72.875 2.75 72.875H15.125V75.625H12.375C12.0103 75.625 11.6606 75.7699 11.4027 76.0277C11.1449 76.2856 11 76.6353 11 77V82.5C11 82.8647 11.1449 83.2144 11.4027 83.4723C11.6606 83.7301 12.0103 83.875 12.375 83.875H20.625C20.9897 83.875 21.3394 83.7301 21.5973 83.4723C21.8551 83.2144 22 82.8647 22 82.5V77C22 76.6353 21.8551 76.2856 21.5973 76.0277C21.3394 75.7699 20.9897 75.625 20.625 75.625H17.875V72.875H70.125V75.625H67.375C67.0103 75.625 66.6606 75.7699 66.4027 76.0277C66.1449 76.2856 66 76.6353 66 77V82.5C66 82.8647 66.1449 83.2144 66.4027 83.4723C66.6606 83.7301 67.0103 83.875 67.375 83.875H75.625C75.9897 83.875 76.3394 83.7301 76.5973 83.4723C76.8551 83.2144 77 82.8647 77 82.5V77C77 76.6353 76.8551 76.2856 76.5973 76.0277C76.3394 75.7699 75.9897 75.625 75.625 75.625H72.875V72.875H85.25C85.6147 72.875 85.9644 72.7301 86.2223 72.4723C86.4801 72.2144 86.625 71.8647 86.625 71.5V67.375C86.625 66.281 86.1904 65.2318 85.4168 64.4582C84.6432 63.6846 83.594 63.25 82.5 63.25ZM19.25 81.125H13.75V78.375H19.25V81.125ZM74.25 81.125H68.75V78.375H74.25V81.125ZM79.75 63.25H77V56.375H79.75V63.25ZM60.5 60.5H74.25V63.25H60.5V60.5ZM60.5 44C60.5 43.6353 60.6449 43.2856 60.9027 43.0277C61.1606 42.7699 61.5103 42.625 61.875 42.625H74.25C74.6147 42.625 74.9644 42.7699 75.2223 43.0277C75.4801 43.2856 75.625 43.6353 75.625 44V54.0073C75.2083 54.2467 74.8619 54.5915 74.6206 55.0071C74.3793 55.4227 74.2514 55.8944 74.25 56.375V57.75H60.5V44ZM57.75 56.375V63.25H55V56.375H57.75ZM35.75 60.5H52.25V63.25H35.75V60.5ZM35.75 44C35.75 43.2548 36.5901 42.625 37.5829 42.625H50.4171C51.4099 42.625 52.25 43.2548 52.25 44V57.75H35.75V44ZM33 56.375V63.25H30.25V56.375H33ZM13.75 60.5H27.5V63.25H13.75V60.5ZM13.75 42.625H26.125C26.4897 42.625 26.8394 42.7699 27.0973 43.0277C27.3551 43.2856 27.5 43.6353 27.5 44V57.75H13.75V56.375C13.7486 55.8944 13.6207 55.4227 13.3794 55.0071C13.1381 54.5915 12.7917 54.2467 12.375 54.0073V44C12.375 43.6353 12.5199 43.2856 12.7777 43.0277C13.0356 42.7699 13.3853 42.625 13.75 42.625ZM8.25 56.375H11V63.25H8.25V56.375ZM83.875 70.125H4.125V67.375C4.125 67.0103 4.26987 66.6606 4.52773 66.4027C4.78559 66.1449 5.13533 66 5.5 66H82.5C82.8647 66 83.2144 66.1449 83.4723 66.4027C83.7301 66.6606 83.875 67.0103 83.875 67.375V70.125Z" fill="#5E5E5E"/>
<path d="M44 34.375C46.9914 34.375 49.9157 33.4879 52.403 31.826C54.8903 30.164 56.8289 27.8018 57.9737 25.0381C59.1184 22.2744 59.418 19.2332 58.8344 16.2993C58.2508 13.3653 56.8103 10.6703 54.695 8.55502C52.5797 6.43975 49.8847 4.99923 46.9507 4.41563C44.0168 3.83203 40.9756 4.13155 38.2119 5.27633C35.4482 6.4211 33.086 8.35971 31.424 10.847C29.7621 13.3343 28.875 16.2586 28.875 19.25C28.8797 23.26 30.4748 27.1043 33.3102 29.9398C36.1457 32.7752 39.99 34.3703 44 34.375ZM42.625 6.95613V9.62501H45.375V6.95613C48.162 7.27191 50.7595 8.52379 52.7429 10.5071C54.7262 12.4905 55.9781 15.088 56.2939 17.875H53.625V20.625H56.2939C55.9781 23.412 54.7262 26.0095 52.7429 27.9929C50.7595 29.9762 48.162 31.2281 45.375 31.5439V28.875H42.625V31.5439C39.838 31.2281 37.2405 29.9762 35.2571 27.9929C33.2738 26.0095 32.0219 23.412 31.7061 20.625H34.375V17.875H31.7061C32.0219 15.088 33.2738 12.4905 35.2571 10.5071C37.2405 8.52379 39.838 7.27191 42.625 6.95613Z" fill="#5E5E5E"/>
<path d="M47.1529 27.0971L49.0971 25.1529L45.375 21.4308V12.375H42.625V22C42.6251 22.3646 42.77 22.7143 43.0279 22.9721L47.1529 27.0971Z" fill="#5E5E5E"/>
</g>
<defs>
<filter id="filter0_d" x="0" y="0" width="92" height="94" filterUnits="userSpaceOnUse" color-interpolation-filters="sRGB">
<feFlood flood-opacity="0" result="BackgroundImageFix"/>
<feColorMatrix in="SourceAlpha" type="matrix" values="0 0 0 0 0 0 0 0 0 0 0 0 0 0 0 0 0 0 127 0"/>
<feOffset dx="2" dy="4"/>
<feGaussianBlur stdDeviation="1"/>
<feColorMatrix type="matrix" values="0 0 0 0 0.843137 0 0 0 0 0.227451 0 0 0 0 0.27451 0 0 0 0.25 0"/>
<feBlend mode="normal" in2="BackgroundImageFix" result="effect1_dropShadow"/>
<feBlend mode="normal" in="SourceGraphic" in2="effect1_dropShadow" result="shape"/>
</filter>
</defs>
</svg>
